<svg width="70" height="70" viewBox="0 0 70 70" fill="none" xmlns="http://www.w3.org/2000/svg">
    <path d="M35.6417 25.6084C35.2917 25.7251 35.1167 26.1334 34.8834 26.3667C34.6501 26.4251 34.4167 26.3084 34.2417 26.1334C34.2417 26.6001 33.6001 26.8917 33.4834 27.3584C34.4167 27.7667 35.4084 28.0001 36.4584 28.1167C36.4001 27.2417 35.6417 26.4834 35.6417 25.6084Z" fill="white"/>
    <path d="M48.5917 34.5333C48.5917 27.2416 42.6417 21.35 35.3501 21.35C28.0584 21.35 22.1084 27.3 22.1084 34.5916C22.1084 41.8833 28.0001 47.775 35.3501 47.775C42.6417 47.775 48.5917 41.825 48.5917 34.5333ZM42.6417 43.6333C41.3001 45.0333 39.5501 45.9666 37.6251 46.1416C37.2751 45.675 37.6251 45.6166 37.6251 45.15C36.7501 44.8583 35.9917 44.1583 35.6417 43.2833C35.5251 42.2916 36.8667 41.5333 36.5167 40.775C35.5251 40.95 34.4751 40.4833 34.0084 39.55C33.6001 39.375 33.1917 39.1416 32.7834 39.025C31.4417 38.675 30.2751 38.0333 29.2834 37.0416C29.2251 36.225 28.8167 35.4666 28.1751 34.9416C27.6501 34.4166 27.8251 33.8333 27.5334 32.9583C27.3001 32.4333 27.1251 31.9083 27.1251 31.325C27.1834 30.7416 27.3001 30.1 27.5334 29.575C28.0584 28.5833 28.4084 27.5333 28.6417 26.425C28.6417 26.0166 28.0001 25.9 28.6417 25.2C29.2251 24.5583 30.0417 24.0916 30.9167 23.975C31.3251 23.975 31.5584 24.2083 32.1417 24.0916L33.4251 23.8583C34.3001 23.8 35.1751 23.5083 35.9334 22.9833H36.5751C37.5667 23.8583 40.0751 23.5083 39.7251 25.4916V25.6083C38.8501 25.725 38.0334 25.6083 37.2167 25.2583V26.25C38.5584 27.0083 40.2501 27.5916 40.9501 29.1083C40.4251 29.75 39.6667 29.4583 38.8501 29.4583C38.6167 29.6916 38.5584 30.0416 38.6167 30.3333C37.9751 30.5666 37.4501 31.0333 37.2167 31.6166C37.2167 32.025 37.1001 32.4333 36.9834 32.8416C36.7501 33.3083 36.3417 33.6 36.1084 34.0666C35.8751 34.5333 36.4584 35.2916 35.7584 35.8166C34.8834 35.8166 34.7667 35.0583 34.0084 34.825C33.3667 34.7083 32.7251 34.65 32.0251 34.5916C31.1501 34.9416 31.2667 37.1 32.4917 36.75C33.0167 36.5166 33.0167 36.1083 33.7751 36.225C34.5334 36.3416 34.0084 37.2166 34.0084 37.625C34.3584 37.8583 35.0001 37.625 35.2334 38.15C35.4667 38.675 35.1167 39.025 35.2334 39.375C35.7001 40.0166 36.9834 38.9083 37.3334 38.85C38.3834 38.6166 39.4334 38.5 40.4834 38.5C41.2417 39.1416 42.5834 38.85 43.2251 39.6083C43.6917 39.6083 44.1001 39.2583 44.4501 39.6083C44.5084 41.2416 43.8667 42.7 42.6417 43.6333Z" fill="white"/>
    <path d="M35 0C15.6917 0 0 15.6917 0 35C0 54.3083 15.6917 70 35 70C54.3083 70 70 54.3083 70 35C70 15.6917 54.3083 0 35 0ZM35 65.2167C32.725 65.2167 30.45 64.925 28.35 64.4583C31.85 62.5917 37.45 59.5 37.8583 59.15C38.5 58.7417 38.7333 58.3917 37.8583 57.5167L35.4083 55.0667H34.8833C33.775 55.0083 32.725 54.8917 31.6167 54.7167C20.4167 52.675 12.95 41.9417 14.9917 30.7417L9.1 27.475C5.54167 40.7167 12.3667 54.5417 25.025 59.7917C25.025 59.7917 24.7917 61.7167 24.6167 63.4083C13.0667 59.15 4.78333 48.0667 4.78333 35C4.78333 26.775 8.05 19.3667 13.3583 13.9417C13.1833 17.7333 13.0083 23.45 13.0083 24.3833C12.8917 25.7833 13.2417 25.7833 14.7583 25.6083L16.975 25.0833C17.6167 23.6833 18.4917 22.4 19.4833 21.2333C26.6583 12.7167 39.4333 11.6083 48.0083 18.8417L54.1333 15.225C44.5083 5.6 29.225 4.725 18.55 13.1833C18.55 13.1833 17.4417 12.1333 16.3917 11.2C21.525 7.175 28 4.78333 35 4.78333C48.3 4.84167 59.5583 13.4167 63.5833 25.3167L54.075 19.775C53.4917 19.4833 53.0833 19.7167 52.9667 20.2417C52.85 20.4167 52.675 21.6417 52.2083 23.3917C54.075 26.3083 55.125 29.6917 55.3583 33.1333C56.0583 42.2917 50.5167 50.75 41.9417 53.7833V60.725H42.4083C49.2917 58.8 55.125 54.1917 58.6833 47.95C61.6 42.6417 62.7083 36.4583 61.8333 30.45L64.6333 29.225C64.9833 31.0917 65.2167 33.0167 65.2167 35C65.2167 51.6833 51.6833 65.2167 35 65.2167Z" fill="white"/>
</svg>
